<?xml version="1.0" encoding="UTF-8"?>
<!DOCTYPE svg PUBLIC "-//W3C//DTD SVG 1.1//EN" "http://www.w3.org/Graphics/SVG/1.1/DTD/svg11.dtd">
<!-- Creator: CorelDRAW -->
<svg xmlns="http://www.w3.org/2000/svg" xml:space="preserve" width="165.453mm" height="138.994mm" style="shape-rendering:geometricPrecision; text-rendering:geometricPrecision; image-rendering:optimizeQuality; fill-rule:evenodd; clip-rule:evenodd"
viewBox="0 0 165.453 138.994"
 xmlns:xlink="http://www.w3.org/1999/xlink">
 <defs>
  <style type="text/css">
   <![CDATA[
    .str0 {stroke:#1F1A17;stroke-width:0.0762}
    .fil1 {fill:none}
    .fil0 {fill:#232D48}
    .fil2 {fill:#E77817}
    .fil3 {fill:white;fill-rule:nonzero}
   ]]>
  </style>
    <clipPath id="id0">
     <path d="M14.313 28.3308l137.626 0 0 62.3905 -137.626 0 0 -62.3905z"/>
    </clipPath>
     <clipPath id="id1">
      <path d="M16.2717 94.4433l133.708 0 0 6.6978 -133.708 0 0 -6.6978z"/>
     </clipPath>
 </defs>
 <g id="Warstwa_x0020_1">
  <metadata id="CorelCorpID_0Corel-Layer"/>
  <polygon class="fil0" points="0.029,138.994 0.029,-0.2616 165.562,-0.2616 165.562,138.994 "/>
  <line class="fil1 str0" x1="0.029" y1="138.994" x2="0.029" y2= "-0.2616" />
  <g id="_219763472">
   <g style="clip-path:url(#id0)">
    <image id="_104488216" transform="matrix(390.095 0 0 176.844 -32256.9 -12199.4)" x="82.7264" y="69.1444" width="0.3528" height="0.3528" xlink:href="logo_kolor2_Images\logo_kolor2_ImgID1.png"/>
   </g>
   <path id="_104639192" class="fil2" d="M70.8116 30.6474l2.3422 -0.0005c1.9756,1.049 4.5662,3.5851 7.7786,7.6087 4.2422,5.3225 6.3811,9.0605 6.3816,11.214 -0.7415,0.1727 -3.2755,0.5865 -7.5853,1.2593 -4.2481,0.6655 -8.0435,1.4243 -11.3918,2.2811l-0.0046 -19.7468 2.4417 -2.6155c0.0126,-0.0003 0.0249,-0.0003 0.0376,-0.0003zm10.5721 -0.0025l14.0506 -0.0033c1.3642,-0.0003 2.4802,1.1144 2.4805,2.4777l0.0046 19.5763c-1.4056,-2.1219 -3.0894,-4.495 -5.055,-7.1211 -5.0086,-6.5367 -8.8387,-11.5132 -11.4807,-14.9296zm14.5123 29.8582c-0.1477,0.0277 -0.2994,0.0427 -0.4547,0.0427l-24.6227 0.0057c-0.9584,0.0003 -1.7928,-0.551 -2.2055,-1.3508 8.5382,-2.8572 16.2681,-4.2864 23.1846,-4.288 1.3664,1.8453 2.732,3.7043 4.0983,5.5904z"/>
   <path id="_104639864" class="fil3" d="M28.6746 81.3757l-2.8913 -7.4901c-0.0857,-0.2227 -0.1756,-0.4839 -0.2698,-0.7794 -0.0943,-0.2955 -0.1843,-0.6081 -0.27,-0.9422 -0.1797,0.6938 -0.3639,1.272 -0.5522,1.7345l-2.8903 7.4776 6.8736 -0.0004zm5.191 6.8346l-1.9272 0.0001c-0.2227,0 -0.4026,-0.0556 -0.5396,-0.1669 -0.1371,-0.1113 -0.2399,-0.2527 -0.3084,-0.424l-1.7219 -4.4452 -8.2611 0.0006 -1.7214 4.4454c-0.0513,0.1542 -0.1498,0.2913 -0.2954,0.4112 -0.1456,0.1199 -0.3254,0.1799 -0.5396,0.1799l-1.9272 0.0001 7.3605 -18.4114 2.5182 -0.0001 7.3631 18.4103zm6.0658 -9.4949c0.7195,-0.0001 1.3576,-0.0901 1.9101,-0.2657 0.5524,-0.1756 1.0149,-0.4241 1.3874,-0.7453 0.3726,-0.3212 0.651,-0.7023 0.8394,-1.1478 0.1884,-0.4454 0.2825,-0.9379 0.2825,-1.4775 0,-1.0963 -0.3599,-1.9228 -1.0794,-2.4795 -0.7195,-0.5567 -1.7987,-0.835 -3.2377,-0.8349l-2.7237 0.0002 0.0005 6.9507 2.6209 -0.0002zm8.5059 9.4939l-2.2098 0.0001c-0.4539,0.0001 -0.788,-0.1755 -1.0022,-0.5267l-4.7798 -6.5777c-0.1456,-0.2055 -0.2998,-0.3554 -0.4668,-0.4454 -0.1671,-0.0898 -0.4283,-0.1327 -0.7794,-0.1327l-1.8887 0.0002 0.0005 7.683 -2.4796 0.0001 -0.0013 -18.4108 5.2033 -0.0004c1.1649,-0.0001 2.1714,0.1155 3.0193,0.351 0.848,0.2354 1.5504,0.578 2.1028,1.0233 0.5525,0.4454 0.9594,0.9807 1.225,1.6102 0.2656,0.6295 0.3983,1.3362 0.3984,2.1156 0.0001,0.6509 -0.1027,1.2591 -0.3082,1.8244 -0.2056,0.5653 -0.501,1.0707 -0.8907,1.5204 -0.3897,0.4497 -0.865,0.8351 -1.426,1.1521 -0.561,0.317 -1.1991,0.5568 -1.91,0.7196 0.3169,0.1799 0.591,0.4411 0.8223,0.7837l5.3709 7.31zm13.4785 -16.3176l-5.9613 0.0003 0.0012 16.3167 -2.4796 0.0002 -0.0012 -16.3167 -5.9742 0.0004 -0.0002 -2.0941 14.4153 -0.001 0 2.0942zm23.7971 7.1159c0.0001,1.379 -0.2183,2.6338 -0.655,3.7645 -0.4368,1.1306 -1.0534,2.0985 -1.8499,2.9037 -0.7965,0.8052 -1.7515,1.4263 -2.8692,1.8674 -1.1177,0.4412 -2.3554,0.664 -3.7087,0.6641l-6.8736 0.0005 -0.0013 -18.4109 6.8736 -0.0004c1.3533,-0.0001 2.591,0.2181 3.7088,0.6592 1.1178,0.441 2.0728,1.0662 2.8694,1.8756 0.7967,0.8093 1.4135,1.7814 1.8503,2.912 0.437,1.1306 0.6555,2.3853 0.6556,3.7643zm-2.5567 0.0002c-0.0001,-1.1306 -0.1544,-2.1412 -0.4628,-3.032 -0.3084,-0.8908 -0.7453,-1.6445 -1.3106,-2.2612 -0.5654,-0.6166 -1.2506,-1.0876 -2.0558,-1.4131 -0.8051,-0.3254 -1.7045,-0.4881 -2.6981,-0.488l-4.381 0.0003 0.001 14.3767 4.3811 -0.0003c0.9935,-0.0001 1.8929,-0.1629 2.698,-0.4884 0.805,-0.3255 1.4902,-0.7967 2.0555,-1.4091 0.5653,-0.6125 1.0021,-1.3619 1.3103,-2.2528 0.3083,-0.8908 0.4624,-1.9015 0.4624,-3.0321zm16.0369 7.1679l-0.0127 2.03 -11.3446 0.0008 -0.0014 -18.4109 11.3446 -0.0008 0.0002 2.03 -8.8521 0.0006 0.0004 6.1155 7.1691 -0.0005 0.0001 1.9529 -7.1691 0.0005 0.0005 6.2826 8.865 -0.0007zm14.9441 -1.774c0.1371,0 0.257,0.0557 0.3598,0.167l0.9894 1.0663c-0.7537,0.8737 -1.6658,1.5547 -2.7407,2.043 -1.0749,0.4883 -2.3768,0.7325 -3.9015,0.7326 -1.319,0.0001 -2.5181,-0.2311 -3.5974,-0.6892 -1.0792,-0.4582 -2,-1.1005 -2.7624,-1.927 -0.7624,-0.8265 -1.3534,-1.8157 -1.7732,-2.972 -0.4198,-1.1563 -0.6297,-2.4282 -0.6298,-3.8158 -0.0001,-1.3875 0.2182,-2.6595 0.655,-3.8158 0.4367,-1.1563 1.0533,-2.15 1.8455,-2.9808 0.7923,-0.8309 1.7387,-1.4777 2.8436,-1.936 1.1048,-0.4583 2.3254,-0.6853 3.6616,-0.6854 1.3104,-0.0001 2.4667,0.2097 3.4689,0.6293 1.0022,0.4196 1.8844,0.9891 2.6467,1.7085l-0.8221 1.1436c-0.0514,0.0856 -0.1156,0.1541 -0.197,0.2098 -0.0814,0.0557 -0.1927,0.0857 -0.3298,0.0857 -0.1541,0 -0.3426,-0.0857 -0.5653,-0.2526 -0.2227,-0.1671 -0.5139,-0.3512 -0.8737,-0.5567 -0.3597,-0.2056 -0.8094,-0.3939 -1.3491,-0.561 -0.5396,-0.1669 -1.2034,-0.2483 -1.9914,-0.2482 -0.9507,0.0001 -1.82,0.1629 -2.608,0.4927 -0.788,0.3298 -1.4646,0.8095 -2.0342,1.4348 -0.5695,0.6253 -1.0149,1.3876 -1.3317,2.287 -0.3168,0.8993 -0.4752,1.9143 -0.4751,3.0449 0,1.1478 0.1672,2.1713 0.497,3.0706 0.3298,0.8993 0.7795,1.6574 1.3491,2.2783 0.5696,0.6209 1.242,1.0963 2.0173,1.4217 0.7751,0.3254 1.6103,0.488 2.5096,0.488 0.5482,-0.0001 1.0449,-0.0343 1.486,-0.0986 0.4411,-0.0642 0.8479,-0.1628 1.2205,-0.2999 0.3726,-0.137 0.7195,-0.3126 1.0407,-0.5225 0.3212,-0.2099 0.638,-0.4583 0.9549,-0.7495 0.1456,-0.1285 0.2912,-0.1928 0.4368,-0.1928zm19.7876 -5.3975c0.0001,1.379 -0.2182,2.6424 -0.6549,3.7945 -0.4368,1.152 -1.0534,2.1456 -1.8499,2.9765 -0.7965,0.8309 -1.7515,1.4733 -2.8692,1.9316 -1.1177,0.4584 -2.3554,0.6897 -3.7087,0.6898 -1.3533,0.0001 -2.5867,-0.231 -3.7002,-0.6892 -1.1135,-0.4582 -2.0686,-1.1005 -2.8652,-1.9313 -0.7966,-0.8308 -1.4134,-1.8242 -1.8503,-2.9762 -0.4369,-1.152 -0.6554,-2.4154 -0.6555,-3.7944 -0.0001,-1.379 0.2183,-2.6466 0.655,-3.7987 0.4367,-1.152 1.0533,-2.1456 1.8499,-2.9808 0.7965,-0.8351 1.7514,-1.4819 2.8649,-1.9445 1.1134,-0.4626 2.3468,-0.694 3.7001,-0.694 1.3533,-0.0001 2.591,0.231 3.7088,0.6935 1.1177,0.4624 2.0728,1.109 2.8695,1.9441 0.7966,0.835 1.4133,1.8285 1.8502,2.9806 0.437,1.1519 0.6554,2.4196 0.6555,3.7985zm-2.5567 0.0002c-0.0001,-1.1306 -0.1543,-2.1455 -0.4627,-3.0448 -0.3084,-0.8994 -0.7453,-1.6617 -1.3106,-2.2826 -0.5654,-0.621 -1.2507,-1.0962 -2.0558,-1.4302 -0.8051,-0.334 -1.7045,-0.501 -2.698,-0.5009 -0.9851,0.0001 -1.8801,0.1671 -2.6852,0.5012 -0.8051,0.3341 -1.4903,0.8095 -2.0599,1.4306 -0.5695,0.621 -1.0105,1.3833 -1.3188,2.2827 -0.3083,0.8993 -0.4624,1.9143 -0.4623,3.0449 0.0001,1.1307 0.1543,2.1413 0.4627,3.0364 0.3084,0.895 0.7496,1.653 1.3192,2.274 0.5697,0.6209 1.2549,1.0962 2.06,1.4259 0.8052,0.3297 1.7003,0.4967 2.6852,0.4966 0.9936,-0.0001 1.893,-0.1672 2.698,-0.497 0.8052,-0.3298 1.4904,-0.8052 2.0556,-1.4262 0.5653,-0.621 1.002,-1.3791 1.3103,-2.2742 0.3083,-0.8951 0.4624,-1.9058 0.4623,-3.0364zm9.7539 -0.2962c0.7194,0 1.3575,-0.09 1.91,-0.2656 0.5524,-0.1756 1.0149,-0.4241 1.3875,-0.7453 0.3725,-0.3212 0.6509,-0.7024 0.8393,-1.1478 0.1884,-0.4454 0.2826,-0.9379 0.2825,-1.4775 0,-1.0963 -0.3598,-1.9228 -1.0794,-2.4795 -0.7195,-0.5567 -1.7987,-0.835 -3.2377,-0.8349l-2.7237 0.0002 0.0005 6.9506 2.621 -0.0002zm8.5059 9.494l-2.2099 0.0001c-0.4539,0 -0.788,-0.1755 -1.0021,-0.5267l-4.7799 -6.5777c-0.1456,-0.2056 -0.2998,-0.3555 -0.4668,-0.4453 -0.167,-0.09 -0.4283,-0.1328 -0.7794,-0.1327l-1.8887 0.0001 0.0006 7.6829 -2.4797 0.0002 -0.0013 -18.4108 5.2034 -0.0004c1.1649,-0.0001 2.1713,0.1155 3.0193,0.351 0.8479,0.2354 1.5503,0.578 2.1028,1.0233 0.5525,0.4454 0.9594,0.9807 1.2249,1.6102 0.2656,0.6295 0.3984,1.3361 0.3985,2.1156 0,0.6509 -0.1027,1.2591 -0.3083,1.8244 -0.2055,0.5653 -0.5009,1.0707 -0.8906,1.5204 -0.3897,0.4497 -0.8651,0.8351 -1.4261,1.1521 -0.561,0.3169 -1.1991,0.5568 -1.91,0.7196 0.317,0.1799 0.5911,0.4411 0.8224,0.7836l5.3709 7.3101z"/>
   <g>
    <g style="clip-path:url(#id1)">
     <image id="_219763616" transform="matrix(1 0 0 1 -66.4547 31.6439)" x="82.7264" y="62.7994" width="133.708" height="6.6978" xlink:href="logo_kolor2_Images\logo_kolor2_ImgID2.png"/>
    </g>
   </g>
   <path id="_219765920" class="fil3" d="M20.516 98.5733l-0.9525 -2.4681c-0.0282,-0.0734 -0.0579,-0.1594 -0.0889,-0.2568 -0.0311,-0.0974 -0.0607,-0.2004 -0.0889,-0.3105 -0.0593,0.2286 -0.12,0.4191 -0.1821,0.5715l-0.9525 2.4639 2.2649 0zm1.7103 2.2521l-0.635 0c-0.0734,0 -0.1327,-0.0183 -0.1778,-0.055 -0.0452,-0.0367 -0.0791,-0.0833 -0.1016,-0.1397l-0.5673 -1.4648 -2.7221 0 -0.5672 1.4648c-0.017,0.0508 -0.0494,0.0959 -0.0974,0.1354 -0.048,0.0395 -0.1072,0.0593 -0.1778,0.0593l-0.635 0 2.4257 -6.0664 0.8297 0 2.4258 6.0664z"/>
   <path id="_2197659201" class="fil3" d="M30.3304 97.9086l0 2.3284c-0.3048,0.2201 -0.6293,0.3838 -0.9751,0.4924 -0.3457,0.1087 -0.7253,0.1637 -1.1373,0.1637 -0.4883,0 -0.9285,-0.0762 -1.3208,-0.2272 -0.3923,-0.1509 -0.7267,-0.3626 -1.0047,-0.635 -0.278,-0.2723 -0.4925,-0.5983 -0.6421,-0.9793 -0.1496,-0.381 -0.2244,-0.8001 -0.2244,-1.2573 0,-0.4628 0.0734,-0.8847 0.2188,-1.2658 0.1453,-0.381 0.3513,-0.7083 0.6194,-0.9807 0.2682,-0.2723 0.5941,-0.4826 0.9779,-0.6322 0.3839,-0.1495 0.8128,-0.2243 1.287,-0.2243 0.2399,0 0.4628,0.0169 0.6688,0.0522 0.2061,0.0353 0.3966,0.0861 0.5716,0.1524 0.1749,0.0663 0.3372,0.1467 0.4868,0.2413 0.1496,0.0945 0.2893,0.2018 0.4191,0.3203l-0.2328 0.3725c-0.0367,0.0565 -0.0833,0.0918 -0.1412,0.1073 -0.0578,0.0155 -0.1227,0.0028 -0.1933,-0.0395 -0.0677,-0.0395 -0.1453,-0.0875 -0.2328,-0.144 -0.0875,-0.0564 -0.1933,-0.1114 -0.3189,-0.1636 -0.1256,-0.0523 -0.2738,-0.096 -0.4445,-0.1327 -0.1708,-0.0367 -0.374,-0.055 -0.6082,-0.055 -0.3415,0 -0.6505,0.055 -0.9271,0.1665 -0.2766,0.1115 -0.5123,0.2709 -0.707,0.4784 -0.1947,0.2074 -0.3443,0.4586 -0.4487,0.7535 -0.1045,0.2949 -0.1567,0.6265 -0.1567,0.9934 0,0.381 0.0551,0.7211 0.1637,1.0217 0.1087,0.3005 0.2639,0.5559 0.4657,0.7662 0.2018,0.2103 0.4459,0.3711 0.7338,0.4812 0.2878,0.1101 0.611,0.1651 0.9694,0.1651 0.2822,0 0.5334,-0.0325 0.7521,-0.096 0.2188,-0.0635 0.4318,-0.1509 0.6407,-0.2638l0 -1.3335 -0.9441 0c-0.0536,0 -0.0959,-0.0156 -0.1284,-0.0466 -0.0324,-0.0311 -0.0494,-0.0692 -0.0494,-0.1143l0 -0.4657 1.8627 0z"/>
   <polygon id="_21976592012" class="fil3" points="37.7064,100.157 37.7022,100.825 33.9641,100.825 33.9641,94.759 37.7022,94.759 37.7022,95.4279 34.7854,95.4279 34.7854,97.443 37.1476,97.443 37.1476,98.0864 34.7854,98.0864 34.7854,100.157 "/>
   <path id="_219765920123" class="fil3" d="M46.1449 94.759l0 6.0664 -0.4106 0c-0.0649,0 -0.1185,-0.0113 -0.1623,-0.0339 -0.0437,-0.0225 -0.0875,-0.0606 -0.1298,-0.1143l-3.5095 -4.572c0.0057,0.0706 0.0099,0.1397 0.0127,0.2074 0.0029,0.0678 0.0043,0.1313 0.0043,0.1905l0 4.3223 -0.7197 0 0 -6.0664 0.4233 0c0.0367,0 0.0678,0.0014 0.0932,0.0057 0.0254,0.0042 0.0479,0.0112 0.0677,0.0211 0.0198,0.0099 0.0395,0.024 0.0593,0.0424 0.0197,0.0183 0.0409,0.0423 0.0635,0.0705l3.5094 4.5678c-0.0056,-0.0734 -0.0099,-0.1454 -0.0141,-0.2145 -0.0042,-0.0691 -0.007,-0.1341 -0.007,-0.1961l0 -4.2969 0.7196 0z"/>
   <path id="_2197659201234" class="fil3" d="M54.3295 99.5723c0.0451,0 0.0846,0.0184 0.1185,0.0551l0.326 0.3513c-0.2484,0.2879 -0.549,0.5123 -0.9032,0.6731 -0.3542,0.1609 -0.7831,0.2413 -1.2855,0.2413 -0.4346,0 -0.8297,-0.0762 -1.1853,-0.2272 -0.3556,-0.1509 -0.659,-0.3626 -0.9102,-0.635 -0.2512,-0.2723 -0.4459,-0.5983 -0.5842,-0.9793 -0.1383,-0.381 -0.2074,-0.8001 -0.2074,-1.2573 0,-0.4572 0.0719,-0.8763 0.2159,-1.2573 0.1439,-0.381 0.3471,-0.7084 0.6082,-0.9821 0.261,-0.2738 0.5729,-0.4869 0.9369,-0.6378 0.3641,-0.151 0.7663,-0.2258 1.2065,-0.2258 0.4318,0 0.8128,0.0691 1.1431,0.2074 0.3302,0.1383 0.6208,0.326 0.872,0.563l-0.2709 0.3768c-0.0169,0.0282 -0.0381,0.0508 -0.0649,0.0692 -0.0268,0.0183 -0.0635,0.0282 -0.1087,0.0282 -0.0508,0 -0.1129,-0.0282 -0.1862,-0.0833 -0.0734,-0.055 -0.1694,-0.1157 -0.2879,-0.1834 -0.1185,-0.0678 -0.2667,-0.1298 -0.4445,-0.1849 -0.1778,-0.055 -0.3965,-0.0818 -0.6562,-0.0818 -0.3133,0 -0.5997,0.0536 -0.8594,0.1623 -0.2596,0.1086 -0.4826,0.2667 -0.6702,0.4727 -0.1877,0.206 -0.3345,0.4572 -0.4389,0.7535 -0.1044,0.2964 -0.1566,0.6308 -0.1566,1.0033 0,0.3782 0.055,0.7155 0.1637,1.0118 0.1086,0.2963 0.2568,0.5461 0.4445,0.7507 0.1876,0.2046 0.4092,0.3613 0.6646,0.4685 0.2554,0.1072 0.5306,0.1609 0.8269,0.1609 0.1806,0 0.3443,-0.0113 0.4897,-0.0325 0.1453,-0.0212 0.2794,-0.0536 0.4021,-0.0988 0.1228,-0.0451 0.2371,-0.103 0.3429,-0.1721 0.1059,-0.0692 0.2103,-0.151 0.3147,-0.247 0.048,-0.0423 0.096,-0.0635 0.144,-0.0635z"/>
   <path id="_21976592012345" class="fil3" d="M60.1942 98.7299c0,0.3387 -0.0409,0.642 -0.1242,0.9102 -0.0833,0.2681 -0.206,0.4939 -0.3683,0.6787 -0.1623,0.1849 -0.3627,0.3274 -0.5997,0.4262 -0.2371,0.0987 -0.5094,0.1481 -0.8171,0.1481 -0.2794,0 -0.5644,-0.0395 -0.8551,-0.1185 0.0056,-0.0818 0.0127,-0.1637 0.0212,-0.2441 0.0084,-0.0805 0.0155,-0.1595 0.0211,-0.2385 0.0057,-0.048 0.024,-0.0875 0.0537,-0.1171 0.0296,-0.0297 0.0747,-0.0438 0.1368,-0.0438 0.0508,0 0.1186,0.0127 0.2018,0.0381 0.0833,0.0254 0.1948,0.0381 0.3359,0.0381 0.1862,0 0.3527,-0.0282 0.4995,-0.0846 0.1468,-0.0565 0.2695,-0.144 0.3683,-0.2625 0.0988,-0.1185 0.175,-0.2709 0.2272,-0.4558 0.0522,-0.1849 0.0776,-0.4036 0.0776,-0.6576l0 -3.9878 0.8213 0 0 3.9709z"/>
   <path id="_219765920123456" class="fil3" d="M67.2781 98.5733l-0.9525 -2.4681c-0.0282,-0.0734 -0.0579,-0.1594 -0.0889,-0.2568 -0.0311,-0.0974 -0.0607,-0.2004 -0.0889,-0.3105 -0.0593,0.2286 -0.12,0.4191 -0.1821,0.5715l-0.9525 2.4639 2.2649 0zm1.7103 2.2521l-0.635 0c-0.0734,0 -0.1327,-0.0183 -0.1778,-0.055 -0.0452,-0.0367 -0.0791,-0.0833 -0.1016,-0.1397l-0.5673 -1.4648 -2.7221 0 -0.5672 1.4648c-0.017,0.0508 -0.0494,0.0959 -0.0974,0.1354 -0.048,0.0395 -0.1072,0.0593 -0.1778,0.0593l-0.635 0 2.4257 -6.0664 0.8297 0 2.4258 6.0664z"/>
   <path id="_2197659201234567" class="fil3" d="M78.1805 97.697c0.2371,0 0.4474,-0.0297 0.6294,-0.0875 0.182,-0.0579 0.3344,-0.1397 0.4572,-0.2456 0.1228,-0.1058 0.2145,-0.2314 0.2766,-0.3781 0.0621,-0.1468 0.0931,-0.3091 0.0931,-0.4869 0,-0.3612 -0.1185,-0.6336 -0.3556,-0.817 -0.2371,-0.1835 -0.5927,-0.2752 -1.0668,-0.2752l-0.8975 0 0 2.2903 0.8636 0zm2.8025 3.1284l-0.7281 0c-0.1496,0 -0.2597,-0.0579 -0.3302,-0.1736l-1.5748 -2.1674c-0.048,-0.0678 -0.0988,-0.1172 -0.1538,-0.1468 -0.0551,-0.0296 -0.1411,-0.0437 -0.2569,-0.0437l-0.6223 0 0 2.5315 -0.817 0 0 -6.0664 1.7145 0c0.3838,0 0.7154,0.0381 0.9948,0.1157 0.2794,0.0776 0.5109,0.1905 0.6929,0.3373 0.182,0.1467 0.3161,0.3231 0.4036,0.5306 0.0875,0.2074 0.1312,0.4402 0.1312,0.697 0,0.2145 -0.0338,0.4149 -0.1016,0.6012 -0.0677,0.1863 -0.1651,0.3528 -0.2935,0.5009 -0.1284,0.1482 -0.285,0.2752 -0.4699,0.3796 -0.1849,0.1044 -0.3951,0.1835 -0.6294,0.2371 0.1045,0.0593 0.1948,0.1453 0.271,0.2582l1.7695 2.4088z"/>
   <polygon id="_21976592012345678" class="fil3" points="87.923,100.157 87.9188,100.825 84.1807,100.825 84.1807,94.759 87.9188,94.759 87.9188,95.4279 85.002,95.4279 85.002,97.443 87.3642,97.443 87.3642,98.0864 85.002,98.0864 85.002,100.157 "/>
   <path id="_219765920123456789" class="fil3" d="M92.2636 97.4176l0.3091 0c0.1072,0 0.1933,-0.0142 0.2582,-0.041 0.0649,-0.0268 0.1242,-0.0719 0.1778,-0.1368l2.0193 -2.2861c0.0565,-0.0733 0.1157,-0.1241 0.1778,-0.1524 0.0621,-0.0282 0.1383,-0.0423 0.2286,-0.0423l0.6943 0 -2.3114 2.612c-0.0565,0.0677 -0.1101,0.1228 -0.1623,0.1665 -0.0522,0.0437 -0.1087,0.0804 -0.1679,0.1087 0.0762,0.0254 0.1453,0.062 0.2074,0.1114 0.0621,0.0494 0.1228,0.1143 0.182,0.1934l2.4131 2.8744 -0.7112 0c-0.0537,0 -0.0988,-0.0042 -0.1369,-0.0113 -0.0381,-0.007 -0.072,-0.0183 -0.1002,-0.0339 -0.0282,-0.0155 -0.0522,-0.0338 -0.0734,-0.055 -0.0212,-0.0212 -0.0423,-0.0451 -0.0621,-0.0734l-2.0913 -2.4087c-0.0564,-0.0706 -0.1171,-0.1214 -0.182,-0.151 -0.0649,-0.0297 -0.1637,-0.0438 -0.2963,-0.0438l-0.3726 0 0 2.7771 -0.817 0 0 -6.0664 0.817 0 0 2.6586z"/>
   <polygon id="_21976592012345678910" class="fil3" points="102.874,100.135 102.874,100.825 99.4322,100.825 99.4322,94.759 100.249,94.759 100.249,100.135 "/>
   <path id="_2197659201234567891011" class="fil3" d="M109.378 98.5733l-0.9525 -2.4681c-0.0282,-0.0734 -0.0579,-0.1594 -0.0889,-0.2568 -0.0311,-0.0974 -0.0607,-0.2004 -0.0889,-0.3105 -0.0593,0.2286 -0.12,0.4191 -0.1821,0.5715l-0.9525 2.4639 2.2649 0zm1.7103 2.2521l-0.635 0c-0.0734,0 -0.1327,-0.0183 -0.1778,-0.055 -0.0452,-0.0367 -0.0791,-0.0833 -0.1016,-0.1397l-0.5673 -1.4648 -2.7221 0 -0.5672 1.4648c-0.017,0.0508 -0.0494,0.0959 -0.0974,0.1354 -0.048,0.0395 -0.1072,0.0593 -0.1778,0.0593l-0.635 0 2.4257 -6.0664 0.8297 0 2.4258 6.0664z"/>
   <path id="_219765920123456789101112" class="fil3" d="M120.577 94.759l0 6.0664 -0.7196 0 0 -4.4577c0,-0.0593 0.0028,-0.1228 0.007,-0.1905 0.0042,-0.0678 0.0085,-0.1369 0.0141,-0.2075l-2.0828 3.7931c-0.0649,0.127 -0.1637,0.1905 -0.2963,0.1905l-0.1186 0c-0.1326,0 -0.2314,-0.0635 -0.2963,-0.1905l-2.1251 -3.81c0.0169,0.1496 0.0254,0.2879 0.0254,0.4149l0 4.4577 -0.7197 0 0 -6.0664 0.6054 0c0.0734,0 0.1298,0.0071 0.1693,0.0212 0.0395,0.0141 0.0776,0.0536 0.1143,0.1185l2.0955 3.7338c0.0339,0.0678 0.0677,0.1383 0.1002,0.2117 0.0325,0.0734 0.0621,0.1482 0.0903,0.2244 0.0282,-0.0762 0.0579,-0.1524 0.0889,-0.2272 0.0311,-0.0748 0.0649,-0.1454 0.1016,-0.2131l2.0574 -3.7296c0.0339,-0.0649 0.072,-0.1044 0.1129,-0.1185 0.0409,-0.0141 0.0974,-0.0212 0.1708,-0.0212l0.6053 0z"/>
   <path id="_21976592012345678910111213" class="fil3" d="M130.107 97.7943c0,0.4544 -0.072,0.8707 -0.2159,1.2503 -0.144,0.3796 -0.3472,0.7069 -0.6096,0.9807 -0.2625,0.2738 -0.5772,0.4854 -0.9455,0.6364 -0.3683,0.151 -0.7761,0.2272 -1.222,0.2272 -0.4459,0 -0.8523,-0.0762 -1.2192,-0.2272 -0.3669,-0.151 -0.6816,-0.3626 -0.9441,-0.6364 -0.2624,-0.2738 -0.4656,-0.6011 -0.6096,-0.9807 -0.1439,-0.3796 -0.2159,-0.7959 -0.2159,-1.2503 0,-0.4544 0.072,-0.872 0.2159,-1.2516 0.144,-0.3796 0.3472,-0.707 0.6096,-0.9822 0.2625,-0.2751 0.5772,-0.4882 0.9441,-0.6406 0.3669,-0.1524 0.7733,-0.2286 1.2192,-0.2286 0.4459,0 0.8537,0.0762 1.222,0.2286 0.3683,0.1524 0.683,0.3655 0.9455,0.6406 0.2624,0.2752 0.4656,0.6026 0.6096,0.9822 0.1439,0.3796 0.2159,0.7972 0.2159,1.2516zm-0.8425 0c0,-0.3725 -0.0508,-0.7069 -0.1524,-1.0033 -0.1016,-0.2963 -0.2455,-0.5475 -0.4318,-0.7521 -0.1862,-0.2046 -0.412,-0.3613 -0.6773,-0.4713 -0.2653,-0.1101 -0.5616,-0.1651 -0.889,-0.1651 -0.3246,0 -0.6195,0.055 -0.8848,0.1651 -0.2653,0.11 -0.4911,0.2667 -0.6787,0.4713 -0.1877,0.2046 -0.3331,0.4558 -0.4347,0.7521 -0.1016,0.2964 -0.1524,0.6308 -0.1524,1.0033 0,0.3726 0.0508,0.7056 0.1524,1.0005 0.1016,0.2949 0.247,0.5447 0.4347,0.7493 0.1876,0.2046 0.4134,0.3613 0.6787,0.4699 0.2653,0.1087 0.5602,0.1637 0.8848,0.1637 0.3274,0 0.6237,-0.055 0.889,-0.1637 0.2653,-0.1086 0.4911,-0.2653 0.6773,-0.4699 0.1863,-0.2046 0.3302,-0.4544 0.4318,-0.7493 0.1016,-0.2949 0.1524,-0.6279 0.1524,-1.0005z"/>
   <path id="_2197659201234567891011121314" class="fil3" d="M141.518 94.759l-1.8923 6.0664 -0.7366 0 -1.5367 -4.6271c-0.0141,-0.0451 -0.0268,-0.0931 -0.0395,-0.1439 -0.0127,-0.0508 -0.0268,-0.1044 -0.0409,-0.1609 -0.0141,0.0565 -0.0282,0.1101 -0.0423,0.1609 -0.0142,0.0508 -0.0283,0.0988 -0.0424,0.1439l-1.5452 4.6271 -0.7366 0 -1.8923 -6.0664 0.6816 0c0.0734,0 0.1355,0.0184 0.1849,0.055 0.0493,0.0367 0.0804,0.0833 0.0945,0.1397l1.2531 4.2165c0.0197,0.0762 0.0395,0.158 0.0578,0.2455 0.0184,0.0875 0.0353,0.1806 0.0522,0.2794 0.0198,-0.0988 0.041,-0.1933 0.0621,-0.2822 0.0212,-0.0889 0.0438,-0.1694 0.0692,-0.2427l1.4266 -4.2165c0.0169,-0.0479 0.0508,-0.0931 0.1002,-0.134 0.0494,-0.0409 0.1087,-0.0607 0.1792,-0.0607l0.2371 0c0.0734,0 0.1326,0.0184 0.1778,0.055 0.0451,0.0367 0.079,0.0833 0.1016,0.1397l1.4224 4.2165c0.0254,0.0733 0.0494,0.1524 0.0705,0.237 0.0212,0.0847 0.041,0.1736 0.0607,0.2667 0.0141,-0.0931 0.0297,-0.182 0.0466,-0.2667 0.0169,-0.0846 0.0353,-0.1637 0.055,-0.237l1.2573 -4.2165c0.0141,-0.0508 0.0466,-0.0959 0.096,-0.1354 0.0494,-0.0395 0.1086,-0.0593 0.1792,-0.0593l0.6392 0z"/>
   <path id="_219765920123456789101112131415" class="fil3" d="M148.022 98.5733l-0.9525 -2.4681c-0.0282,-0.0734 -0.0579,-0.1594 -0.0889,-0.2568 -0.0311,-0.0974 -0.0607,-0.2004 -0.0889,-0.3105 -0.0593,0.2286 -0.12,0.4191 -0.1821,0.5715l-0.9525 2.4639 2.2649 0zm1.7103 2.2521l-0.635 0c-0.0734,0 -0.1327,-0.0183 -0.1778,-0.055 -0.0452,-0.0367 -0.0791,-0.0833 -0.1016,-0.1397l-0.5673 -1.4648 -2.7221 0 -0.5672 1.4648c-0.017,0.0508 -0.0494,0.0959 -0.0974,0.1354 -0.048,0.0395 -0.1072,0.0593 -0.1778,0.0593l-0.635 0 2.4257 -6.0664 0.8297 0 2.4258 6.0664z"/>
  </g>
 </g>
</svg>
